<svg id="Layer_1" data-name="Layer 1" xmlns="http://www.w3.org/2000/svg" viewBox="0 0 59.75 27.57"><defs><style>.cls-1,.cls-2{fill:#f9f9fa;}.cls-2{font-size:3.29px;font-family:HiraKakuStd-W8-83pv-RKSJ-H, Hiragino Kaku Gothic Std;}</style></defs><path class="cls-1" d="M-126-33.28h0a.5.5,0,0,0,.8-.52,7.65,7.65,0,0,1,.08-4.49,7.62,7.62,0,0,1,2-3.19.77.77,0,0,1,1.29.56,31.8,31.8,0,0,0,.24,4.05,3.81,3.81,0,0,0-1.48,2,3.78,3.78,0,0,0,1.34,4.2,3.82,3.82,0,0,0,2.16.75,3.77,3.77,0,0,0,3.42-2,3.81,3.81,0,0,0,.45-1.83,3.78,3.78,0,0,0-2.6-3.56l-.16,0a27.79,27.79,0,0,1-.17-4.58,1.64,1.64,0,0,1,1.84-1.56,7,7,0,0,1,1.34.31,7.66,7.66,0,0,1,5.1,9l1.2,2.33a.73.73,0,0,1-.5,1l-.46.09a.27.27,0,0,0-.21.33l.13.51a.45.45,0,0,1-.13.45l-.34.29.09.35a.54.54,0,0,1-.22.61l-.4.25a.32.32,0,0,0-.12.35,1.16,1.16,0,0,1,0,.64,1.07,1.07,0,0,1-1.13.73l-2.62-.27a.62.62,0,0,0-.69.65,1.86,1.86,0,0,0,.7,1.39l.54.43a4.12,4.12,0,0,0,6.7-3.35l-.34-9.66-.34-9.66a4.12,4.12,0,0,0-6.92-2.88L-126.21-39.5A4.12,4.12,0,0,0-126-33.28Zm5-2.76a2.74,2.74,0,0,1,1.41-.45,2.79,2.79,0,0,1,2.89,2.7,2.8,2.8,0,0,1-.31,1.38,3.74,3.74,0,0,0,.07-.75,3.14,3.14,0,0,0-3.24-3A3.13,3.13,0,0,0-121-36Z" transform="translate(167.54 50.66)"/><path class="cls-1" d="M-164.67-34.87a1.74,1.74,0,0,0,.36,1,2,2,0,0,0,1.61.65c1.07,0,1.7-.47,1.7-1.24a1,1,0,0,0-.58-1,12,12,0,0,0-2.07-.56,5.38,5.38,0,0,1-2.22-.8,3.11,3.11,0,0,1-1.34-2.65c0-2.13,1.71-3.47,4.43-3.47a4.5,4.5,0,0,1,3.84,1.58,3.89,3.89,0,0,1,.69,1.65l-2.93.32c-.16-.9-.66-1.27-1.71-1.27-.84,0-1.46.46-1.46,1.09a.93.93,0,0,0,.65.88,7.38,7.38,0,0,0,1.9.46,6.71,6.71,0,0,1,2.24.79,3.08,3.08,0,0,1,1.49,2.81A3.43,3.43,0,0,1-159-32a5,5,0,0,1-3.63,1.18,6.56,6.56,0,0,1-3.08-.68,3.27,3.27,0,0,1-1.49-1.77,4.82,4.82,0,0,1-.3-1.28Z" transform="translate(167.54 50.66)"/><path class="cls-1" d="M-149.95-35.32a8.34,8.34,0,0,0-1.37.07V-37.7a11.48,11.48,0,0,0,1.81.09h1.11c.7,0,1.21,0,1.82-.07a12.78,12.78,0,0,0-.1,1.87v1.55a14.51,14.51,0,0,0,.1,2.06,6.94,6.94,0,0,1-1.76.87,9.26,9.26,0,0,1-2.92.47,5.51,5.51,0,0,1-4.1-1.48A6.41,6.41,0,0,1-157-36.92c0-3.63,2.19-5.94,5.67-5.94a4.82,4.82,0,0,1,3.95,1.64,4.11,4.11,0,0,1,.82,1.51l-2.82.65a1.78,1.78,0,0,0-.62-1,2.15,2.15,0,0,0-1.4-.43c-1.76,0-2.73,1.29-2.73,3.61a4.25,4.25,0,0,0,.84,2.88,2.59,2.59,0,0,0,2,.75,4.07,4.07,0,0,0,2-.5v-1.57Z" transform="translate(167.54 50.66)"/><path class="cls-1" d="M-142-42.61a12,12,0,0,0-.11,2v7.4a12.47,12.47,0,0,0,.11,2h-3a13.45,13.45,0,0,0,.11-2v-7.4a13.28,13.28,0,0,0-.11-2Z" transform="translate(167.54 50.66)"/><path class="cls-1" d="M-136.34-32.82c-.38.58-.67,1.06-1,1.69H-141c.75-.91,1-1.27,1.42-1.82l3-4.26-2.58-3.63a19.89,19.89,0,0,0-1.36-1.77h3.58a11.72,11.72,0,0,0,1,1.82l1,1.6,1-1.61a11.6,11.6,0,0,0,1-1.81h3.55c-.5.62-.83,1-1.31,1.74l-2.6,3.64,3.06,4.28c.44.62.82,1.12,1.4,1.82h-3.65c-.27-.49-.53-1-1-1.69l-1.5-2.34Z" transform="translate(167.54 50.66)"/><text class="cls-2" transform="translate(1.8 24.93)">Open Media Center</text></svg>